PathFileType	4	(X/Y/Z)	/home/abdul/Desktop/myosuite/custom_workspace/IK/output/S14_12_3.trc
DataRate	CameraRate	NumFrames	NumMarkers	Units	OrigDataRate	OrigDataStartFrame	OrigNumFrames
200.0	200.0	39	3	mm	200.0	266	2126
Frame#	Time	V_Shoulder			V_Elbow			V_Wrist		
		X1	Y1	Z1	X2	Y2	Z2	X3	Y3	Z3

266	1.325	-152.2877405233802	677.8254549852383	322.5681788720421	-172.54044583747321	463.18328687672965	54.822280461859265	-74.21905377512988	232.39868426147598	39.74553619307078
267	1.33	-152.12723306756803	677.4890304188011	322.59524430206903	-172.23188019226203	462.96917822704654	54.715671847878255	-73.95701276254688	232.1593206324889	39.64123936685765
268	1.335	-151.9685351874992	677.1531899344658	322.62018863819543	-171.92582427382183	462.7589031250397	54.60516057341451	-73.6962735760018	231.9237136077346	39.534319696477844
269	1.34	-151.8116406829877	676.8179786082445	322.6430426951223	-171.62236077802947	462.55251882995793	54.49076383253379	-73.4368847571267	231.6919649329115	39.42462613293587
270	1.345	-151.6565438529283	676.4834426585189	322.66383801725186	-171.32156878667155	462.35007756449477	54.372500950515814	-73.178892518453	231.46417280999032	39.312010812151954
271	1.35	-151.50323953076642	676.1496294170391	322.6826068336189	-171.02352383333832	462.15162649452736	54.25039347018185	-72.9223408914752	231.24043152436707	39.19632985672934
272	1.355	-151.35172311667665	675.8165873008912	322.6993820141004	-170.72829798698933	461.95720771870015	54.12446524481303	-72.66727190476338	231.02083108002705	39.07744419078732
273	1.36	-151.2019906063579	675.4843657853257	322.7141970270124	-170.43595995205138	461.7668582677446	53.994742536986756	-72.4137257900396	230.80545684429484	38.955220362422764
274	1.365	-151.05403861636097	675.153015377327	322.727085898196	-170.14657518382725	461.5806101134326	53.86125412259029	-72.16174121392083	230.59438920377974	38.8295313682581
275	1.37	-150.90786440587382	674.8225875897933	322.738083171689	-169.86020601792018	461.39849018706025	53.724031399207476	-71.91135553283351	230.38770323314645	38.700257474464756
276	1.375	-150.76346589489842	674.4931349161915	322.7472238720666	-169.57691181231195	461.22052040736764	53.583108498017936	-71.66260506842647	230.18546837835004	38.56728702861869
277	1.38	-150.6208416787628	674.164710805538	322.75454346852814	-169.296749100674	461.04671771779283	53.438522398297906	-71.41552540065143	229.98774815596877	38.43051725674893
278	1.385	-150.47999103892082	673.8373696375545	322.7600778407985	-169.01977175544107	460.877094132961	53.2903130435689	-71.17015167554243	229.79459987025228	38.28985503998165
279	1.39	-150.34091395000206	673.5111666978393	322.7638632468999	-168.74603115913567	460.7116567943013	53.13852345840454	-70.92651892461177	229.60607434946922	38.145217665260645
280	1.395	-150.20361108308484	673.1861581528898	322.76593629284406	-168.4755763824	460.55040803467955	52.98319986487789	-70.68466239268967	229.42221570309562	37.99653354474045
281	1.4	-150.06808380517327	672.8624010248149	322.7663339042819	-168.2084543671689	460.3933454519239	52.824391797611085	-70.44461787096853	229.2430611013254	37.84374289859956
282	1.405	-149.9343341748722	672.53995316556	322.7650933001393	-167.94471011340454	460.2404619911086	52.66215221637668	-70.20642203197164	229.0686405783136	37.68679839620816
283	1.41	-149.80236493426068	672.218873230485	322.7622519682578	-167.68438686780948	460.09174603544795	52.49653761519607	-69.97011276315197	228.89897686047783	37.52566575080647
284	1.415	-149.6721794969781	671.8992206511169	322.75784764304734	-167.42752631294263	459.94718150563443	52.32760812688363	-69.73572949583588	228.73408522108616	37.36032426310388
285	1.42	-149.5437819325439	671.5810556069156	322.75191828515034	-167.17416875517603	459.80674796743824	52.15542762199754	-69.50331352626468	228.5739733622494	37.190767309496415
286	1.425	-149.41717694694535	671.2644389958816	322.74450206310513	-166.92435330995795	459.6704207473624	51.98006380117763	-69.27290832554804	228.41864132531583	37.0170027709165
287	1.43	-149.29236985953443	670.9494324038461	322.7356373369865	-166.6781180828815	459.53817105612654	51.801588279878644	-69.04455983543131	228.26808143053375	36.83905339867409
288	1.435	-149.16936657628867	670.6360980722849	322.7253626439933	-166.4355003451021	459.40996611972787	51.62007666454237	-68.81831674689025	228.12227824670532	36.65695711402036
289	1.44	-149.04817355949692	670.3244988645052	322.71371668594196	-166.19653670170075	459.2857693178008	51.435608619294825	-68.59423075870232	227.98120859140516	36.47076723856006
290	1.445	-148.92879779394374	670.0146982300586	322.7007383186165	-165.96126325165184	459.16554032897113	51.24826792230478	-68.3723568133018	227.84484156217758	36.28055265305625
291	1.45	-148.81124674967415	669.7067601672437	322.68646654291723	-165.72971573812308	459.0492352828694	51.058142510995964	-68.1527533074049	227.71313859895997	36.08639788260697
292	1.455	-148.69552834143067	669.4007491835706	322.6709404977401	-165.5019296879138	458.93680691844384	50.86532451536846	-67.93548227508978	227.58605357781056	35.888403106625795
293	1.46	-148.58165088486302	669.0967302540664	322.6541994545135	-165.27794053892217	458.8282047481764	50.66991027875347	-67.72060954123376	227.46353293583982	35.68668409252355
294	1.465	-148.46962304962128	668.7947687773153	322.6362828133081	-165.05778375462398	458.7233752277826	50.472000365399445	-67.50820484344176	227.34551582706717	35.48137205246394
295	1.47	-148.35945380945068	668.4949305291346	322.6172301004313	-164.84149492464206	458.62226193093977	50.27169955436641	-67.29834192084813	227.23193430874375	35.27261342304874
296	1.475	-148.2511523894157	668.1972816138021	322.5970809674098	-164.62910985059005	458.52480572856365	50.069116819288624	-67.09109856843273	227.12271355749908	35.060569568273685
297	1.48	-148.14472821038876	667.9018884127623	322.57587519125667	-164.4206646164799	458.4309449721197	49.86436529365184	-66.88655665576039	227.01777211449001	34.84541640658334
298	1.485	-148.04019083094786	667.6088175307523	322.55365267591617	-164.21619564309526	458.3406156804309	49.657562221321285	-66.68480210932962	226.9170221585511	34.627343963336074
299	1.49	-147.93754988683327	667.3181357393017	322.5304534547716	-164.01573972584663	458.25375172941517	49.44882889214804	-66.48592485799772	226.8203698061713	34.40655585046763
300	1.495	-147.83681502812246	667.0299099175754	322.5063176940991	-163.8193340557415	458.1702850441598	49.238290562575145	-66.29001874123318	226.72771543695154	34.18326867560843
301	1.5	-147.73799585428756	666.7442069905422	322.4812856973459	-163.62701622322174	458.09014579271866	49.02607636125852	-66.09718138023092	226.6389540430361	33.95771138336357
302	1.505	-147.64110184730782	666.461093864469	322.45539791010714	-163.43882420473778	458.01326258099516	48.812319179812675	-65.90751401220729	226.55397560085407	33.730124531901865
303	1.51	-147.5461423030136	666.1806373597519	322.4286949256737	-163.25479633205083	457.93956264805604	48.597155548884544	-65.7211212884705	226.4726654633613	33.5007595084172
304	1.515	-147.4531262608458	665.9029041411151	322.40121749102167	-163.07497124437003	457.8689720612052	48.38072549985146	-65.53811103713161	226.3949047708387	33.26987768742027
